<svg version="1.1" id="Layer_1" xmlns="http://www.w3.org/2000/svg" xmlns:xlink="http://www.w3.org/1999/xlink" x="0px" y="0px"
	 width="100%" viewBox="0 0 196 195" enable-background="new 0 0 196 195" xml:space="preserve">
<path fill="#A6B9FB" opacity="1.000000" stroke="none" 
	d="
M125.000000,196.000000 
	C83.359673,196.000000 42.219337,196.000000 1.039504,196.000000 
	C1.039504,131.067932 1.039504,66.135849 1.039504,1.101878 
	C66.223473,1.101878 131.447159,1.101878 196.835419,1.101878 
	C196.835419,65.999657 196.835419,130.999802 196.835419,196.000000 
	C173.136139,196.000000 149.318069,196.000000 125.000000,196.000000 
M104.163651,68.007820 
	C101.605583,67.885712 99.362801,67.868912 98.542236,71.260735 
	C98.167046,72.811607 96.329781,73.987167 95.226707,75.388901 
	C93.778625,77.229042 92.400742,79.124420 90.278961,81.034073 
	C87.482468,83.768791 84.685966,86.503510 81.309174,89.805702 
	C81.185219,87.561356 81.061188,85.819359 80.998055,84.075157 
	C80.829918,79.430077 80.598946,74.784882 80.556000,70.138222 
	C80.487129,62.686161 80.143761,55.205322 80.647446,47.786278 
	C81.499641,35.233891 82.668854,22.971106 70.749176,14.028650 
	C66.277504,10.673887 53.610477,9.402649 49.517639,13.193189 
	C48.761204,13.893755 48.569721,15.204329 47.627430,16.701813 
	C46.320248,17.794535 45.013062,18.887257 43.027843,20.043680 
	C37.378738,23.102818 38.107510,28.716686 38.092148,33.628773 
	C37.949108,79.372124 38.005749,125.116096 38.005875,170.859894 
	C38.005898,179.556030 40.431107,182.077606 49.291470,181.957092 
	C66.185448,181.727310 83.076332,181.269684 99.970322,181.042068 
	C103.594482,180.993240 107.227951,181.752045 110.854378,181.727768 
	C116.490089,181.690079 122.352104,180.181931 127.712975,181.278351 
	C141.315567,184.060379 152.331421,178.201935 163.002426,171.707794 
	C167.469452,168.989258 172.386703,164.504318 173.797241,159.826736 
	C176.226501,151.770996 176.565460,142.953949 176.877472,134.423325 
	C177.282394,123.352440 170.589676,115.158379 162.920273,108.648178 
	C154.507828,101.507248 144.748657,95.950935 135.561737,89.725639 
	C133.258774,88.165100 132.206985,86.287720 134.410583,83.999992 
	C137.134018,81.172577 139.891708,78.327667 142.951019,75.886894 
	C146.837418,72.786247 151.237335,70.246826 150.990173,64.314186 
	C150.839447,60.696178 148.842972,59.773972 145.638046,60.393196 
	C142.760452,60.949173 139.877914,61.479637 136.092514,62.009773 
	C129.540726,62.008152 122.930191,61.476585 116.458138,62.194138 
	C112.253311,62.660320 106.897919,62.369797 104.163651,68.007820 
z"/>
<path fill="#FBFCFD" opacity="1.000000" stroke="none" 
	d="
M43.705879,19.979977 
	C45.013062,18.887257 46.320248,17.794535 48.259399,16.400688 
	C54.923973,14.074581 60.939487,12.069049 67.129799,15.651018 
	C74.621620,19.986095 77.997948,26.603537 77.881500,35.087769 
	C77.705833,47.885979 77.286324,60.682007 77.218712,73.480270 
	C77.101814,95.610359 77.296425,117.742676 77.071304,139.871124 
	C77.023827,144.538467 78.129646,146.228180 83.116455,146.148102 
	C98.748764,145.897110 114.391350,146.063751 130.025604,146.327026 
	C133.501633,146.385574 137.040894,146.864029 138.606949,143.166718 
	C140.313080,139.138748 137.529678,136.765564 134.417068,134.682983 
	C120.745575,125.535652 107.092812,116.359314 93.506355,107.086388 
	C88.268349,103.511383 84.832886,98.853348 86.330795,91.904343 
	C87.060410,90.759331 87.446877,89.712082 87.827431,88.493706 
	C87.821518,88.322586 87.918701,87.994217 88.286530,87.942566 
	C96.175804,83.681236 103.885468,79.656715 106.222198,69.879181 
	C108.987007,66.144554 112.354393,64.784660 116.722343,64.913124 
	C123.502983,65.112579 130.298111,64.819206 137.059967,64.816788 
	C137.032837,64.898819 136.973907,65.061264 137.037903,65.318161 
	C137.739044,65.446190 138.376205,65.317322 139.409119,65.133087 
	C140.868484,65.058990 141.932114,65.040245 142.997345,65.444023 
	C143.035568,67.283066 143.072174,68.699585 143.054718,70.059784 
	C143.000656,70.003456 143.115662,70.108681 142.727753,70.080643 
	C138.362793,70.175133 137.231659,72.746002 136.966339,76.358437 
	C136.649246,76.792694 136.405319,76.970871 135.789810,76.933228 
	C130.111923,76.091476 128.252563,78.285744 129.965271,83.343430 
	C128.899002,84.764839 128.006134,85.902718 126.950050,87.248604 
	C128.132843,88.162415 128.995010,88.893211 129.920013,89.533165 
	C139.218338,95.966095 148.623047,102.250084 157.810913,108.836708 
	C172.822021,119.597931 178.288559,135.564301 172.905243,152.137024 
	C167.728073,168.075104 153.369507,177.969589 135.405426,177.971756 
	C105.922928,177.975342 76.439583,177.864090 46.958763,178.087219 
	C42.042526,178.124405 40.848400,176.583267 40.873058,171.863174 
	C41.054043,137.218018 40.651577,102.567284 41.107895,67.927200 
	C41.318474,51.941658 38.504292,35.716763 43.705879,19.979977 
z"/>
<path fill="#B0C0E8" opacity="1.000000" stroke="none" 
	d="
M136.117462,77.088913 
	C136.405319,76.970871 136.649246,76.792694 137.252319,76.179413 
	C139.475494,73.905869 141.295578,72.007278 143.115662,70.108681 
	C143.115662,70.108681 143.000656,70.003456 143.392975,69.998093 
	C145.191391,68.728416 146.597488,67.464088 148.003601,66.199760 
	C147.770905,65.807007 147.538208,65.414253 147.305527,65.021500 
	C145.868927,65.021500 144.432327,65.021500 142.995728,65.021500 
	C141.932114,65.040245 140.868484,65.058990 139.072433,65.070648 
	C137.884628,65.062798 137.429276,65.062027 136.973907,65.061264 
	C136.973907,65.061264 137.032837,64.898819 137.032806,64.481033 
	C137.021027,63.382610 137.009293,62.701984 136.997559,62.021355 
	C139.877914,61.479637 142.760452,60.949173 145.638046,60.393196 
	C148.842972,59.773972 150.839447,60.696178 150.990173,64.314186 
	C151.237335,70.246826 146.837418,72.786247 142.951019,75.886894 
	C139.891708,78.327667 137.134018,81.172577 134.410583,83.999992 
	C132.206985,86.287720 133.258774,88.165100 135.561737,89.725639 
	C144.748657,95.950935 154.507828,101.507248 162.920273,108.648178 
	C170.589676,115.158379 177.282394,123.352440 176.877472,134.423325 
	C176.565460,142.953949 176.226501,151.770996 173.797241,159.826736 
	C172.386703,164.504318 167.469452,168.989258 163.002426,171.707794 
	C152.331421,178.201935 141.315567,184.060379 127.712975,181.278351 
	C122.352104,180.181931 116.490089,181.690079 110.854378,181.727768 
	C107.227951,181.752045 103.594482,180.993240 99.970322,181.042068 
	C83.076332,181.269684 66.185448,181.727310 49.291470,181.957092 
	C40.431107,182.077606 38.005898,179.556030 38.005875,170.859894 
	C38.005749,125.116096 37.949108,79.372124 38.092148,33.628773 
	C38.107510,28.716686 37.378738,23.102818 43.366859,20.011829 
	C38.504292,35.716763 41.318474,51.941658 41.107895,67.927200 
	C40.651577,102.567284 41.054043,137.218018 40.873058,171.863174 
	C40.848400,176.583267 42.042526,178.124405 46.958763,178.087219 
	C76.439583,177.864090 105.922928,177.975342 135.405426,177.971756 
	C153.369507,177.969589 167.728073,168.075104 172.905243,152.137024 
	C178.288559,135.564301 172.822021,119.597931 157.810913,108.836708 
	C148.623047,102.250084 139.218338,95.966095 129.920013,89.533165 
	C128.995010,88.893211 128.132843,88.162415 126.950050,87.248604 
	C128.006134,85.902718 128.899002,84.764839 130.215210,83.140953 
	C132.464844,80.799599 134.291153,78.944252 136.117462,77.088913 
z"/>
<path fill="#B1BEE9" opacity="1.000000" stroke="none" 
	d="
M85.987640,92.002106 
	C84.832886,98.853348 88.268349,103.511383 93.506355,107.086388 
	C107.092812,116.359314 120.745575,125.535652 134.417068,134.682983 
	C137.529678,136.765564 140.313080,139.138748 138.606949,143.166718 
	C137.040894,146.864029 133.501633,146.385574 130.025604,146.327026 
	C114.391350,146.063751 98.748764,145.897110 83.116455,146.148102 
	C78.129646,146.228180 77.023827,144.538467 77.071304,139.871124 
	C77.296425,117.742676 77.101814,95.610359 77.218712,73.480270 
	C77.286324,60.682007 77.705833,47.885979 77.881500,35.087769 
	C77.997948,26.603537 74.621620,19.986095 67.129799,15.651018 
	C60.939487,12.069049 54.923973,14.074581 48.504425,16.166458 
	C48.569721,15.204329 48.761204,13.893755 49.517639,13.193189 
	C53.610477,9.402649 66.277504,10.673887 70.749176,14.028650 
	C82.668854,22.971106 81.499641,35.233891 80.647446,47.786278 
	C80.143761,55.205322 80.487129,62.686161 80.556000,70.138222 
	C80.598946,74.784882 80.829918,79.430077 80.998055,84.075157 
	C81.061188,85.819359 81.185219,87.561356 81.309174,89.805702 
	C84.685966,86.503510 87.482468,83.768791 90.639893,81.361404 
	C91.009277,82.150375 91.017723,82.612007 90.862915,83.354889 
	C89.772682,85.088821 88.845695,86.541519 87.918701,87.994217 
	C87.918701,87.994217 87.821518,88.322586 87.523827,88.656906 
	C86.813301,89.994850 86.400467,90.998482 85.987640,92.002106 
M95.494835,112.995102 
	C91.105568,109.021408 86.716293,105.047722 82.327019,101.074036 
	C81.886368,101.255692 81.445709,101.437347 81.005051,101.619003 
	C81.212334,104.978172 81.709526,108.349380 81.570732,111.694199 
	C81.203308,120.548683 80.441269,129.386917 80.082916,138.241608 
	C79.926781,142.099838 81.587219,144.180664 86.102196,144.099350 
	C100.392593,143.841965 114.691330,144.072754 128.984543,143.911591 
	C130.623703,143.893112 132.248428,142.592606 133.879837,141.886536 
	C133.007935,140.105667 132.576309,137.779221 131.177933,136.650742 
	C127.610741,133.772095 123.619560,131.416840 119.784637,128.872345 
	C111.917671,123.652565 104.041954,118.445969 95.494835,112.995102 
z"/>
<path fill="#B5C1EB" opacity="1.000000" stroke="none" 
	d="
M136.545044,62.015564 
	C137.009293,62.701984 137.021027,63.382610 137.059937,64.399002 
	C130.298111,64.819206 123.502983,65.112579 116.722343,64.913124 
	C112.354393,64.784660 108.987007,66.144554 105.966263,69.853165 
	C105.382362,70.147713 105.211479,70.155289 105.030243,69.804092 
	C105.010727,68.967010 105.001549,68.488693 104.992371,68.010376 
	C106.897919,62.369797 112.253311,62.660320 116.458138,62.194138 
	C122.930191,61.476585 129.540726,62.008152 136.545044,62.015564 
z"/>
<path fill="#B4C5EC" opacity="1.000000" stroke="none" 
	d="
M104.578003,68.009094 
	C105.001549,68.488693 105.010727,68.967010 104.855888,70.074249 
	C100.136635,74.826653 95.581398,78.950150 91.026169,83.073647 
	C91.017723,82.612007 91.009277,82.150375 90.996750,81.342392 
	C92.400742,79.124420 93.778625,77.229042 95.226707,75.388901 
	C96.329781,73.987167 98.167046,72.811607 98.542236,71.260735 
	C99.362801,67.868912 101.605583,67.885712 104.578003,68.009094 
z"/>
<path fill="#F0F8FD" opacity="1.000000" stroke="none" 
	d="
M90.862915,83.354889 
	C95.581398,78.950150 100.136635,74.826653 104.866226,70.433014 
	C105.211479,70.155289 105.382362,70.147713 105.809196,70.166153 
	C103.885468,79.656715 96.175804,83.681236 88.286530,87.942566 
	C88.845695,86.541519 89.772682,85.088821 90.862915,83.354889 
z"/>
<path fill="#F0F8FD" opacity="1.000000" stroke="none" 
	d="
M135.789810,76.933228 
	C134.291153,78.944252 132.464844,80.799599 130.388611,82.857422 
	C128.252563,78.285744 130.111923,76.091476 135.789810,76.933228 
z"/>
<path fill="#F0F8FD" opacity="1.000000" stroke="none" 
	d="
M142.997345,65.444023 
	C144.432327,65.021500 145.868927,65.021500 147.305527,65.021500 
	C147.538208,65.414253 147.770905,65.807007 148.003601,66.199760 
	C146.597488,67.464088 145.191391,68.728416 143.447037,70.054420 
	C143.072174,68.699585 143.035568,67.283066 142.997345,65.444023 
z"/>
<path fill="#F0F8FD" opacity="1.000000" stroke="none" 
	d="
M142.727753,70.080643 
	C141.295578,72.007278 139.475494,73.905869 137.369446,75.983475 
	C137.231659,72.746002 138.362793,70.175133 142.727753,70.080643 
z"/>
<path fill="#F0F8FD" opacity="1.000000" stroke="none" 
	d="
M86.330795,91.904343 
	C86.400467,90.998482 86.813301,89.994850 87.529739,88.828026 
	C87.446877,89.712082 87.060410,90.759331 86.330795,91.904343 
z"/>
<path fill="#F0F8FD" opacity="1.000000" stroke="none" 
	d="
M137.037903,65.318161 
	C137.429276,65.062027 137.884628,65.062798 138.676682,65.126007 
	C138.376205,65.317322 137.739044,65.446190 137.037903,65.318161 
z"/>
<path fill="#A6B9FB" opacity="1.000000" stroke="none" 
	d="
M95.832336,113.114517 
	C104.041954,118.445969 111.917671,123.652565 119.784637,128.872345 
	C123.619560,131.416840 127.610741,133.772095 131.177933,136.650742 
	C132.576309,137.779221 133.007935,140.105667 133.879837,141.886536 
	C132.248428,142.592606 130.623703,143.893112 128.984543,143.911591 
	C114.691330,144.072754 100.392593,143.841965 86.102196,144.099350 
	C81.587219,144.180664 79.926781,142.099838 80.082916,138.241608 
	C80.441269,129.386917 81.203308,120.548683 81.570732,111.694199 
	C81.709526,108.349380 81.212334,104.978172 81.005051,101.619003 
	C81.445709,101.437347 81.886368,101.255692 82.327019,101.074036 
	C86.716293,105.047722 91.105568,109.021408 95.832336,113.114517 
z"/>
</svg>